<svg width="50" height="20" viewBox="0 0 50 20" fill="none" xmlns="http://www.w3.org/2000/svg"><g id="Logo/Ford"><g id="Ford"><path id="Path" d="M15.0593 0C8.40549 0 6.57895 4.09637 6.57895 6.07393C6.57895 8.89902 8.40549 9.18153 9.44923 9.18153C12.3195 9.18153 14.2765 5.79142 14.2765 4.52014C14.2765 3.95512 13.7546 3.67261 13.7546 3.95512C12.45 5.93268 11.4062 6.21519 10.6234 6.21519C9.84063 6.21519 9.31876 5.93268 9.31876 5.08515C9.31876 3.67261 11.4062 0.98878 15.7117 0.98878C20.5389 0.98878 26.9318 3.24885 28.4974 3.81386C33.8466 5.22641 36.7169 3.53136 38.0215 1.83631C38.2825 1.5538 38.2825 0.423763 36.9778 0.706271C28.8888 3.24885 21.9741 0 15.0593 0Z" fill="#00095b"/><path id="Shape" d="M22.4154 1.48256C22.4154 1.48256 22.4154 2.02969 22.4154 2.30325C19.5959 3.94465 17.4812 7.09066 17.4812 7.09066V7.36423C17.7632 7.36423 19.4549 7.36423 20.5827 7.09066C20.5827 6.81709 20.5827 6.81709 20.5827 6.54353C20.5827 5.44926 21.4286 4.62857 22.5564 4.62857C23.6842 4.62857 23.6842 5.44926 23.6842 5.9964C23.6842 7.09066 22.8383 7.63779 21.9925 7.91136C22.2744 8.18492 22.5564 8.45849 22.8383 8.45849C23.4023 8.73206 22.8383 9.27919 22.2744 9.00562C21.7105 8.73206 21.4286 8.45849 21.1466 8.18492C19.7368 8.45849 18.0451 8.45849 17.0583 8.73206C16.7763 8.73206 16.7763 9.00562 16.4944 9.00562C13.1109 14.3402 9.86842 19.2643 5.21616 19.6747C3.52444 19.6747 0 18.5804 0 15.1609C0 12.1516 2.25564 10.3735 3.80639 10.0999C5.49812 9.82632 5.21616 10.9206 4.93421 11.1941C4.3703 11.4677 2.39662 12.8355 2.39662 14.2034C2.39662 15.5712 3.24248 16.3919 4.65225 16.3919C7.4718 16.3919 9.30451 15.0241 13.2519 9.9631C13.5338 9.68954 13.5338 9.41597 13.8158 9.1424C13.8158 9.1424 11.5601 9.41597 10.9962 10.2367H10.7143C10.4323 10.2367 10.4323 9.68954 10.7143 9.41597C11.5601 8.59527 13.8158 8.04814 15.3665 8.04814C17.0583 5.85961 19.1729 3.26074 21.7105 1.89291C22.1335 1.20899 22.4154 1.20899 22.4154 1.48256ZM21.8515 6.68031C22.4154 6.40674 22.9793 6.13318 22.9793 5.31248C22.9793 5.03891 22.6974 5.03891 22.6974 5.03891C22.1335 5.03891 21.8515 5.85961 21.8515 6.40674V6.68031Z" fill="#00095b"/><path id="Shape_2" d="M41.406 10.1493C43.5582 10.1493 43.5582 11.27 43.8273 11.8303C43.8273 11.8303 46.7866 6.64737 47.7282 5.52674C47.7282 5.52674 47.7282 5.24658 47.9972 5.24658H49.8804C49.8804 5.24658 50.1495 5.52674 49.8804 5.52674C49.8804 5.8069 44.0963 14.912 43.2892 16.0326C42.4821 17.1533 42.7511 17.9937 43.2892 17.9937C44.3653 17.9937 46.5176 15.4723 47.7282 14.2116H47.9972C48.2662 14.2116 48.5353 14.4918 48.5353 14.4918V14.7719C48.2663 15.0521 45.3069 19.6747 42.4821 19.6747C41.406 19.6747 40.5989 19.1144 40.5989 17.7136C40.3299 18.2739 38.7157 19.6747 36.967 19.6747C34.2767 19.6747 34.2767 16.593 34.8148 15.0521C33.7387 15.8926 32.9316 16.1727 32.1245 16.1727C30.2413 16.1727 29.9722 14.7719 30.2413 13.6513C30.2413 13.3711 27.82 17.7136 27.0129 19.1144L26.7439 19.3945H24.5917C24.3226 19.3945 24.3226 19.3945 24.5917 19.1144C24.5917 18.8342 27.82 13.6513 28.4926 12.5307C29.0306 11.41 27.9545 11.41 27.6855 11.6902C26.8784 11.9704 24.7262 14.4918 22.9775 16.8731C21.6323 18.8342 20.2872 19.6747 18.5385 19.6747C16.6553 19.6747 15.5792 17.9937 15.5792 16.8731C15.5792 17.1533 14.234 18.2739 13.965 18.5541C13.965 18.5541 13.965 18.5541 13.696 18.5541C13.4269 18.5541 13.4269 18.2739 13.1579 17.9937V17.7136C13.696 17.1533 13.965 16.8731 14.234 16.3128C15.5792 14.912 16.6553 10.0093 20.8252 10.0093C20.8252 10.0093 21.0943 10.0093 21.3633 10.0093C21.3633 10.0093 21.6323 10.2894 21.6323 10.5696C21.6323 10.8497 21.3633 11.1299 21.3633 11.1299C17.4624 12.2505 16.3863 17.7136 19.2111 17.7136C21.0943 17.7136 23.65 13.9315 22.4394 11.41C22.4394 11.1299 22.4394 10.8497 22.7084 10.5696C23.7846 10.0093 23.7846 10.2894 24.0536 10.2894C24.3226 10.5696 24.8607 11.6902 24.5917 12.8108C25.1297 11.9704 27.0129 9.44895 29.0306 9.44895C30.3758 9.44895 30.6448 10.5696 30.3758 11.6902C32.259 8.32831 35.0838 9.44894 35.0838 11.1299C35.0838 13.6513 31.8555 13.6513 32.3935 11.41C32.3935 11.1299 32.3935 11.1299 32.1245 11.41C30.7793 12.8108 31.0484 14.4918 32.3935 14.4918C35.8909 14.912 37.9086 10.1493 41.406 10.1493ZM42.2131 13.7914C42.2131 13.7914 42.4821 12.9509 42.4821 12.6708C42.4821 12.3906 42.4821 11.5501 41.675 11.5501C40.0609 11.5501 37.7741 14.3517 37.7741 16.4529C37.7741 17.0132 38.0431 17.8537 38.8502 17.8537C40.4644 17.8537 42.7511 14.4918 42.7511 14.0715C42.2131 14.0715 42.2131 14.0715 42.2131 13.7914Z" fill="#00095b"/></g></g></svg>